Coordinates
version=1
nRows=8
nColumns=63
inDegrees=yes

Units are S.I. units (second, meters, Newtons, ...)
If the header above contains a line with 'inDegrees', this indicates whether rotational values are in degrees (yes) or radians (no).

endheader
time	pelvis_tilt	pelvis_list	pelvis_rotation	pelvis_tx	pelvis_ty	pelvis_tz	hip_flexion_r	hip_adduction_r	hip_rotation_r	knee_angle_r	knee_angle_r_beta	ankle_angle_r	subtalar_angle_r	mtp_angle_r	hip_flexion_l	hip_adduction_l	hip_rotation_l	knee_angle_l	knee_angle_l_beta	ankle_angle_l	subtalar_angle_l	mtp_angle_l	L5_S1_Flex_Ext	L5_S1_Lat_Bending	L5_S1_axial_rotation	L4_L5_Flex_Ext	L4_L5_Lat_Bending	L4_L5_axial_rotation	L3_L4_Flex_Ext	L3_L4_Lat_Bending	L3_L4_axial_rotation	L2_L3_Flex_Ext	L2_L3_Lat_Bending	L2_L3_axial_rotation	L1_L2_Flex_Ext	L1_L2_Lat_Bending	L1_L2_axial_rotation	L1_T12_Flex_Ext	L1_T12_Lat_Bending	L1_T12_axial_rotation	Abs_r3	Abs_r2	Abs_r1	Abs_t1	Abs_t2	neck_flexion	neck_bending	neck_rotation	arm_flex_r	arm_add_r	arm_rot_r	elbow_flex_r	pro_sup_r	wrist_flex_r	wrist_dev_r	arm_flex_l	arm_add_l	arm_rot_l	elbow_flex_l	pro_sup_l	wrist_flex_l	wrist_dev_l
0.000000	-2.102676	-4.615407	86.752307	0.217776	0.741239	0.759446	2.312680	-1.686920	9.669706	4.322773	0.075447	18.818208	0.290595	0.000000	1.214206	1.741481	-12.211526	3.436919	0.059986	21.253790	4.666975	0.000000	0.077147	-0.323339	0.919853	0.143269	-0.430041	0.977344	0.126744	-0.786167	0.977344	0.088171	-0.786167	0.804871	0.071638	-0.659353	0.747381	0.044082	-0.500852	0.689890	0.551051	-3.657676	5.115947	0.000000	0.000000	27.188132	4.450189	-6.257756	14.131799	-6.987999	57.403810	44.455879	81.508418	12.222204	7.326568	17.895313	-12.429681	67.487568	48.108373	79.738986	3.463585	-5.186800
0.016667	-1.925731	-4.600128	86.839695	0.217420	0.741162	0.759322	2.412159	-1.562363	8.128830	4.477970	0.078155	19.544245	2.456627	0.000000	0.916390	1.689305	-10.869705	3.053537	0.053294	21.058025	2.887017	0.000000	0.081855	-0.299699	0.873733	0.152014	-0.398599	0.928341	0.134480	-0.728687	0.928341	0.093553	-0.728687	0.764516	0.076011	-0.611145	0.709908	0.046772	-0.464233	0.655299	0.584685	-3.390251	4.859438	0.000000	0.000000	26.817025	4.368401	-5.659177	14.449556	-7.057091	58.150663	44.308183	82.112161	11.212429	6.203250	17.016509	-12.105723	65.508458	48.256318	79.876819	2.667455	-3.826295
0.033333	-1.761850	-4.591437	86.910409	0.217120	0.741072	0.759230	2.487078	-1.441450	6.871639	4.589970	0.080110	20.117723	4.201402	0.000000	0.668867	1.627224	-9.790728	2.723226	0.047529	20.887249	1.467673	0.000000	0.086809	-0.279062	0.845276	0.161213	-0.371152	0.898106	0.142618	-0.678511	0.898106	0.099214	-0.678511	0.739616	0.080611	-0.569063	0.686787	0.049603	-0.432267	0.633957	0.620068	-3.156804	4.701171	0.000000	0.000000	26.503311	4.304741	-5.254269	14.616552	-7.126056	58.554939	44.246708	82.666344	10.398086	5.377102	16.323342	-11.816239	63.922651	48.353831	80.005541	2.146296	-2.622037
0.050000	-1.610775	-4.588433	86.965774	0.216871	0.740974	0.759167	2.539819	-1.324754	5.873714	4.663443	0.081392	20.553044	5.563006	0.000000	0.467424	1.557030	-8.949807	2.442733	0.042634	20.739249	0.372814	0.000000	0.091921	-0.261226	0.832565	0.170706	-0.347431	0.884600	0.151016	-0.635146	0.884600	0.105056	-0.635146	0.728494	0.085358	-0.532693	0.676459	0.052523	-0.404640	0.624424	0.656580	-2.955044	4.630475	0.000000	0.000000	26.242016	4.256340	-5.022713	14.649990	-7.194539	58.656061	44.261471	83.166067	9.762533	4.821200	15.798460	-11.559453	62.697212	48.406058	80.124756	1.864842	-1.570688
0.066667	-1.472247	-4.590219	87.007110	0.216669	0.740870	0.759129	2.572767	-1.212848	5.110635	4.703058	0.082084	20.864609	6.579524	0.000000	0.307849	1.480511	-8.322155	2.208803	0.038551	20.611813	-0.433689	0.000000	0.097104	-0.245989	0.833680	0.180331	-0.327166	0.885785	0.159532	-0.598099	0.885785	0.110980	-0.598099	0.729470	0.090171	-0.501622	0.677365	0.055485	-0.381038	0.625260	0.693602	-2.782682	4.636679	0.000000	0.000000	26.028168	4.220329	-4.944194	14.567073	-7.262183	58.493452	44.342488	83.606428	9.289130	4.508618	15.424512	-11.333587	61.799202	48.418146	80.234069	1.787827	-0.668910
0.083333	-1.346007	-4.595895	87.035741	0.216509	0.740764	0.759113	2.588303	-1.106305	4.557983	4.713485	0.082266	21.066819	7.289041	0.000000	0.185927	1.399457	-7.882987	2.018182	0.035224	20.502726	-0.987967	0.000000	0.102272	-0.233149	0.846704	0.189928	-0.310088	0.899623	0.168022	-0.566878	0.899623	0.116886	-0.566878	0.740866	0.094969	-0.475437	0.687947	0.058438	-0.361147	0.635028	0.730515	-2.637424	4.709112	0.000000	0.000000	25.856796	4.193840	-4.998392	14.385006	-7.328635	58.106533	44.479777	83.982528	8.961233	4.412432	15.184147	-11.136865	61.195683	48.395242	80.333087	1.879987	0.086636
0.100000	-1.231797	-4.604563	87.052988	0.216386	0.740658	0.759116	2.588810	-1.005697	4.191339	4.699394	0.082020	21.174075	7.729643	0.000000	0.097446	1.315659	-7.607514	1.867615	0.032596	20.409778	-1.326148	0.000000	0.107337	-0.222501	0.869717	0.199336	-0.295927	0.924074	0.176344	-0.540990	0.924074	0.122676	-0.540990	0.761002	0.099673	-0.453725	0.706645	0.061333	-0.344655	0.652288	0.766699	-2.516981	4.837104	0.000000	0.000000	25.722926	4.174003	-5.164991	14.120991	-7.393537	57.534725	44.663353	84.289466	8.762201	4.505717	15.060013	-10.967509	60.853719	48.342492	80.421415	2.106056	0.699286
0.116667	-1.129358	-4.615324	87.060176	0.216296	0.740555	0.759136	2.576671	-0.911597	3.986283	4.665453	0.081428	21.200778	7.939414	0.000000	0.038192	1.230905	-7.470949	1.753848	0.030610	20.330755	-1.484362	0.000000	0.112214	-0.213845	0.900801	0.208393	-0.284414	0.957101	0.184357	-0.519944	0.957101	0.128250	-0.519944	0.788201	0.104202	-0.436074	0.731901	0.064119	-0.331247	0.675601	0.801535	-2.419062	5.009983	0.000000	0.000000	25.621588	4.157951	-5.423674	13.792232	-7.456535	56.817452	44.883234	84.522340	8.675393	4.761550	15.034760	-10.823741	60.740372	48.265042	80.498657	2.430768	1.172381
